<svg version="1" xmlns="http://www.w3.org/2000/svg" width="382.667" height="382.667" viewBox="0 0 287.000000 287.000000"><path d="M90.2.8c-1.8.2-3 .7-2.8 1.1.3.4-1 .6-2.7.5-1.8-.1-3.7.2-4.4.8-.7.5-1.7.7-2.3.3-.5-.3-1.3 0-1.6.9-.3.8-1.1 1.3-1.8 1-.7-.3-1.9.2-2.6 1-.7.9-1.6 1.3-2.1 1-.5-.3-.9 0-.9.5 0 .6-.5 1.1-1.1 1.1-2.5 0-8.6 3.6-12.2 7.2-2.1 2.1-4.5 3.8-5.4 3.8-.8 0-1.3.6-1.1 1.2.3.7-.6 2.3-1.8 3.6-1.3 1.2-2.4 2-2.4 1.6 0-.4-.9.5-2 1.9s-2 2.8-2 3.1c0 .7-5.2 8.8-6.1 9.6-.3.3-.5 1.3-.3 2.3.1 1-.3 2-1 2.3-.7.3-1.2 1.5-1.1 2.7.1 1.2-.2 2.9-.6 3.7-2.5 4.8-3.5 28.3-1.3 30.1.7.5 1 1.8.7 2.8-.7 2.9 4.1 16.1 6 16.1.5 0 .7.6.4 1.4-.3.8.1 1.7.9 2 .9.3 1.2 1.1.9 1.7-.4.6.2 1.7 1.4 2.5 1.2.9 1.9 1.9 1.6 2.4-.3.5.4 1.4 1.5 2 2.1 1.1 2.1 1.2.3 2.8-1 .9-2.7 3.5-3.8 5.7-1.1 2.2-2.7 4.5-3.5 5.2-.8.6-1.5 1.5-1.6 2-.5 3.3-1.8 7.3-2.5 7.3-.4 0-.6.9-.4 2 .2 1.1 0 2-.4 2-.5 0-1.2 1.9-1.5 4.2-1.1 6.1-1.3 25.9-.4 26.4.4.3.8 2.3.8 4.5 0 2.1.4 3.9.9 3.9.6 0 .8.9.6 2-.2 1.1 0 2 .6 2 .5 0 .8.3.7.8-.3 1.4 1.4 4.2 2.3 3.6.5-.3.8-.2.7.3-.3 1.3 2.5 8.3 3.4 8.3.4 0 .8.7.8 1.5s.5 1.5 1.2 1.5c.6 0 .9.3.5.6-.7.7 11.3 12.8 16.5 16.7 2 1.5 4.4 2.7 5.3 2.7.8 0 1.8.7 2.1 1.5.4.8 1 1.2 1.5.9.5-.3.9 0 .9.7s.3.9.7.6c.3-.4 1.2-.2 1.9.3.6.6 2.1 1.3 3.3 1.5 1.2.3 3 .7 4.2 1 1.1.2 3 .7 4.2 1.1 6.7 2.1 31.3 2.1 32.9 0 .3-.5 1.5-1.1 2.5-1.2 3.7-.5 6.5-1.4 7.9-2.4.7-.7 1.8-.9 2.4-.5.5.3 1-.2 1-1.1 0-1 .3-1.5.6-1.2.3.4 1.7 0 3.1-.7 3-1.6 5.4-.8 3.2.9-.8.6-1.3 2.6-1.2 4.4.1 1.7-.2 3.2-.6 3.2-.4 0-.8 1.2-.9 2.6-.1 1.5-.7 3.3-1.2 3.9-.6.7-1 1.7-.9 2.1.2 1.7-1.3 5.4-2.3 5.4-.5 0-.8.6-.6 1.2.4 1.2 0 2.1-3.2 5.7-.8.9-2.1 2.9-2.9 4.3-.8 1.5-1.8 2.5-2.2 2.3-.4-.3-1 .3-1.3 1.3-.4 1-1.9 2.5-3.4 3.3-1.5.8-3.5 2.2-4.4 3.2-.9 1-1.9 1.8-2.2 1.8-1.9-.3-2.7 0-2.2.7.3.5 0 .9-.7 1-4.5.6-5.7.9-6.9 1.9-.7.6-2.1.9-3 .8-1-.2-1.8.1-1.8.6s-2.6.9-5.9.9h-5.8l.1 6.2.1 6.3 3.5.3c1.9.1 5.3.2 7.5.1 4.3-.1 4.9-.1 11.1.2 2.2.2 4.4 0 5-.2.5-.3 2-.4 3.4-.2s3.9.3 5.5.2c1.7-.1 3.7-.1 4.5-.1 4.6.3 9.6.4 10 .2 1.7-.6 5.1-.6 6.1 0 .6.4 2.7.4 4.7-.1 2.1-.4 4.3-.4 5.4.2 1.2.7 1.8.6 1.8-.1 0-.6.5-.8 1.1-.5 1.6 1 6.9 1.2 6.3.3-.7-1.1.7-1 2.5.1.7.5 2.6.5 4.1.1 1.5-.4 3.3-.4 4 0 .7.4 2.5.4 4 0s3.3-.4 4 0c.7.4 2.5.4 4 0s3.3-.5 3.9-.1c.7.4 3.3.4 5.9 0 2.6-.4 5.5-.3 6.5.2 1.1.7 1.7.6 1.7-.1s.6-.8 1.9-.1c1.4.8 2.2.7 3.2-.5 1.8-2.1 2.2-5.4.9-6.9-.8-.9-.8-1.4 0-1.7.6-.2.8-1.1.5-2.1-.6-1.3-1.9-1.7-6-1.7-3 0-5.7-.5-6-1-.4-.6-1.1-.8-1.6-.4-.5.3-2.3-.1-3.9-1-1.9-.9-2.8-1-2.3-.3.5.8.2.8-.9 0-.8-.7-1.8-1-2.1-.6-.4.3-.7-.1-.7-1 0-1-.5-1.7-1.1-1.7-.5 0-.7.5-.3 1.2.8 1.3-4.9-2.6-8-5.4-1-.9-2.2-1.6-2.5-1.5-.8.4-5.5-4.7-5.9-6.4-.2-.8-1-1.8-1.8-2.2-.8-.4-1.4-1.5-1.4-2.2 0-.8-.5-1.5-1.1-1.5-.5 0-.7-.5-.4-1 .3-.6.1-1-.4-1-.6 0-1.1-.7-1.1-1.5s-.4-1.5-1-1.5c-.5 0-.7-.6-.4-1.4.3-.7-.2-2.1-1.1-2.9-.9-.9-1.5-2.2-1.4-2.9.1-.7 0-2-.3-2.8-2-5.5-3-10.1-2.5-11.4.7-1.8 2.7-2.2 2.7-.6 0 .5.9 1 2 1s2 .5 2 1.1c0 .5.4.8.9.5.5-.3 1.4.1 2.1.9.7.8 1.6 1.2 2.1.9.5-.3 1.5-.2 2.2.3.6.4 1.9.8 2.7.9.8 0 2.8.4 4.4.9 1.5.4 4.3.8 6.1.9 1.8 0 3.7.4 4.1.9 1 .9 9.8.9 10.8 0 .4-.5 2.6-.8 4.9-.9 2.3 0 6.2-.7 8.7-1.4 2.5-.8 4.7-1.4 5-1.4 1.7-.3 7.6-3.2 8.2-4 .3-.5 1.3-1.1 2.1-1.2 1.5-.2 6.8-3.7 9.5-6.1.7-.7 1.6-1.3 2-1.3 1.2 0 7.2-5.7 7.2-6.8 0-.6 1.4-2.4 3.1-4.1 1.7-1.7 2.7-3.1 2.3-3.1-.4 0 .2-1 1.4-2.3 1.2-1.3 1.9-2.7 1.5-3-.3-.4-.2-.7.4-.7.9 0 2.1-2.3 2.7-5.2 0-.3.4-1 .9-1.4.4-.4.7-1.6.7-2.6s.6-2.1 1.4-2.4c.8-.3 1.1-1.5.8-3-.2-1.3 0-3 .5-3.7.6-.7.9-7.1.8-14.7-.2-15.4-.2-15.3-1.3-14.6-.4.2-.6-1-.4-2.9.2-1.8-.1-3.6-.7-3.9-.6-.4-1.1-1.6-1.1-2.7 0-1-.5-1.9-1-1.9-.6 0-.9-.3-.8-.8.4-1.2-5.2-12.2-6.2-12.2-.5 0-1.6-1.3-2.4-2.9-1.4-2.6-1.4-3 .4-4.6 1.1-1 2-2.4 2-3 0-.7.7-1.8 1.5-2.5s2.5-3.5 3.8-6.1c1.2-2.7 2.5-4.9 2.9-4.9.3 0 .4-.9.1-2-.3-1.1 0-2 .6-2s1.1-1.5 1.1-3.3c0-1.9.3-3.7.7-4.1.5-.4.8-6.8.9-14.3.1-10.4-.2-13.8-1.3-14.9-1.2-1.1-1.2-1.4-.1-1.4 1 0 1-.2-.1-.9s-1.1-.9 0-1.4c1.1-.4 1.1-.6.1-.6-.7-.1-1-.5-.7-1.1.3-.6.1-1-.4-1-.6 0-1.1-.7-1.1-1.6 0-2.5-7.1-16.5-8.6-17.1-.8-.3-1.4-1.1-1.4-1.9 0-.8-.5-1.4-1.1-1.4-.5 0-.8-.3-.6-.8.2-.4-1.8-2.8-4.5-5.5-2.6-2.6-4.8-4.4-4.8-4 0 .5-.4.3-.8-.3-1-1.5-9.9-7.4-11.1-7.4-.6 0-1.1-.5-1.1-1.1 0-.5-.4-.8-.9-.4-.5.3-1.5-.1-2.3-.8-.7-.8-2.1-1.3-3.1-1.1-.9.1-1.7-.2-1.7-.7 0-.6-.4-.7-1-.4-.5.3-1 .2-1-.3 0-.9-.5-1.1-6.2-1.6-2-.2-4.2-.7-4.9-1.1-1.5-1-19.3-1-20.8 0-.7.4-2.8.7-4.7.7-1.9 0-3.6.4-3.9.9-.3.4-1.2.6-1.9.3-.8-.3-1.7-.1-2.1.5-.3.6-1.5 1.1-2.6 1.1s-1.8.4-1.5.9c.6.9-8.2 4.8-9.6 4.3-.5-.1-.8.2-.8.8 0 .5-.5 1-1 1-.6 0-2.3 1.1-3.7 2.4-2.5 2.3-2.7 2.4-5.2.8-1.4-.9-2.8-1.9-3.1-2.3-.3-.4-3-1.9-6-3.5s-5.8-3.3-6.1-3.8c-.4-.5-1.2-.5-1.9-.1s-1.6.2-2-.6c-.8-1.2-2.3-1.7-8.7-2.3-1.7-.2-3.7-.7-4.3-1.1C108.7.7 95.8.3 90.2.8zM97 14.1c0-.9 9.9-.6 13.2.5 1.2.4 3.1.7 4.1.5.9-.1 1.7.2 1.7.6 0 .5 2 1.5 4.5 2.2 2.5.7 4.5 1.7 4.5 2.2 0 .5.3.8.8.7 1.3-.2 4.7 1.5 6.5 3.4 1.7 1.7 1.6 2-3.3 6.8-2.8 2.8-5.6 5-6.2 5-.6 0-.9.3-.5.6.7.8-7.9 9.4-9.4 9.4-.6 0-.7.4-.4 1 .3.5-.1 1-.9 1-.9 0-1.5.3-1.4.7.3 1-14.3 15.3-15.6 15.3-.5 0-.7.2-.4.5.3.3-4.2 5.2-10 10.8-5.9 5.6-12.4 12.1-14.6 14.4-2.1 2.3-4.3 4-4.8 3.7-.5-.3-.7-.1-.6.3.4 1.1-8.3 10.3-9.7 10.3-1.7 0-6.8-9-7.7-13.5-.1-.6-.8-1.6-1.6-2.4-.7-.8-1.2-2.5-.9-3.7.2-1.3-.1-2.5-.6-2.7-1.3-.4-1.8-19.4-.6-21.8.5-.9 1.1-3.1 1.4-5 .3-1.9 1-3.5 1.5-3.7.5-.2.7-.9.4-1.7-.3-.7 0-1.6.5-2 .6-.3.9-1.1.6-1.6-.4-.5-.1-.9.4-.9.6 0 1.1-.5 1.1-1.1 0-.6.9-2.2 2-3.6s1.7-2.9 1.5-3.3c-.3-.5.4-1.1 1.5-1.5 1.1-.3 2.5-1.5 3.1-2.6.5-1.1 1.4-1.7 2-1.4.5.4.9 0 .9-.7 0-.8 1.6-2.9 3.5-4.8s3.5-3.1 3.5-2.7c0 .3 1.6-.5 3.6-1.8 2-1.4 4.2-2.5 4.8-2.5 1.7 0 6.6-2.4 6.6-3.2 0-.3 1.4-.5 3-.4 1.7.1 3-.1 3-.5 0-1.2 4.2-1.6 6.8-.7 1.2.4 2.2.4 2.2-.1zm90.2.4c.5.6.8.5.8-.2 0-.9.7-1 2.5-.3 1.5.6 2.5.6 2.5 0 0-1.1 5.3-.8 6.1.3.3.5 2.1.9 3.8.9 1.8.1 3.5.7 3.8 1.3.2.7 1.3 1.1 2.4.8 1-.3 1.9 0 1.9.6s.9 1.1 2 1.1 2 .5 2 1.1c0 .5.5.7 1 .4.6-.3 1-.1 1 .4 0 .6.8 1.1 1.8 1.1s2.8 1.1 4 2.5c1.2 1.4 2.8 2.5 3.5 2.5 1.4 0 3.1 1.9 6.1 6.5 1.1 1.6 2.9 3.7 4 4.7 1.2 1 1.7 1.7 1.3 1.8-.4 0 .2 1 1.3 2.2 1.8 2 4.8 10.6 4.1 11.7-.2.2.3.7 1 1.2.9.5 1.3 2.6 1.1 5.8-.1 3.5.2 5.1 1.1 5.1 1.4 0 1.4 7.9-.1 8.9-.5.3-1 2.3-1 4.3-.3 5.8-.5 6.8-1.3 6.8-.4 0-.5.9-.2 2s0 2-.6 2-1.1.7-1.1 1.6c0 .9-.5 1.2-1.2.8-.7-.4-.8-.3-.4.4.4.6 0 2.5-.9 4.2-.8 1.6-1.4 3.1-1.3 3.3.5.5-3 3.7-4 3.7-1.4 0-5.7-4.1-5.5-5.1.2-.5 0-.8-.5-.8-1.6.3-3.5-.1-3-.7.8-.7-10.5-12.2-11.4-11.7-.5.2-.8-.1-.8-.7 0-1.2-8-8.9-9.2-9-.5 0-.8-.5-.8-1.1 0-1.1-6.8-7.9-7.9-7.9-.8 0-3.4-2.9-5.6-6.4-1-1.4-2.1-2.6-2.6-2.6-1.4 0-6.8-5.8-6.1-6.4.3-.3.1-.6-.5-.6s-6.7-5.6-13.5-12.3c-10.2-10-12.4-12.7-11.6-14.1.5-.9 1.3-1.4 1.8-1.1.5.3 1.1.1 1.5-.5.9-1.4 8.1-5 8.8-4.4.3.4 1.5-.3 2.7-1.4 1.3-1.2 3.5-2 5.2-2 1.6.1 3.3-.3 3.8-.8 1.2-1.2 7.3-1.2 8.2.1zM151 41c3.2 3.3 6.4 6 7.1 6 .7 0 1 .3.6.6-.7.7 10 11.4 11.4 11.4.5 0 .9.4.9 1 0 1.2 14.9 15.8 15.5 15.1.3-.2.5 0 .5.6s2.3 3.3 5 6c13.6 13.1 24 23.7 24 24.5 0 .5.4.7.9.4 1.4-.9 7.2 7 6.5 8.8-.3.9-1 1.3-1.5 1-.5-.3-.9 0-.9.6 0 1.1-14.7 15.9-19.9 20.1-1.3 1-2.1 1.9-1.8 1.9.4 0-2.4 2.9-6.1 6.5-3.6 3.6-7.1 6.5-7.6 6.5s-.7.3-.4.6c.3.3-1.7 2.6-4.5 5.2-7 6.5-9.7 9.2-9.2 9.2.2 0-.6 1.1-1.8 2.3-1.2 1.3-2.4 2.3-2.7 2.3-.3 0-5.3 4.8-11.1 10.7-5.8 5.9-11.1 10.7-11.8 10.7-.7 0-7.3-6-14.6-13.4-7.4-7.3-13.7-13.1-14-12.8-.3.3-.5-.2-.5-1.2 0-.9-.4-1.4-1-1.1-.5.3-1 .1-1-.4 0-1.2-10.1-11.1-11.3-11.1-.5 0-.6-.4-.3-.8.3-.5-.6-1.5-1.9-2.2-1.4-.7-2.5-1.9-2.5-2.7 0-.7-.4-1.3-.9-1.3-1.2 0-6.1-4.7-6.1-6 0-.5-.3-1-.8-1-1.1 0-12.2-10.8-12.2-12 0-.5-.5-1-1.1-1-1.4 0-8.9-7.6-8.9-9.1 0-.5-.4-.8-.9-.4-.5.3-1.2.1-1.6-.5-.5-.7 47.8-50 49-50 .6 0 7.2-6.9 7-7.2-.2-.2 1.2-1.4 3.1-2.8 1.8-1.4 3.6-3.3 4-4.3.3-.9.8-1.6 1.2-1.5.4.2 3.7-2.7 7.4-6.4 3.6-3.8 6.3-6.8 6-6.8-.7 0 1.9-2 2.6-2 .2 0 3 2.7 6.2 6zm-85 93.7c0-.5 1.2.6 2.8 2.5 4 4.8 9 9.8 9.9 9.8.4 0 1.9 1.6 3.2 3.5 1.3 2 2.6 3.3 2.8 3.1.3-.2 2.7 2 5.4 5s4.9 5.2 4.9 4.9c0-.3 2.5 2.2 5.5 5.5s5.5 5.8 5.5 5.6c0-.2 3.4 2.9 7.5 7s7.5 7.9 7.5 8.6c0 .6.3.9.6.5.3-.3 3.5 2.5 7 6.1 5.5 5.6 6.2 6.8 4.7 7.4-1 .3-1.3.7-.8.7.6.1-1.2 1.2-4 2.5-2.7 1.4-5.4 2.2-5.9 1.9-.5-.4-.6-.2-.3.4.7 1.1-4 3.6-5.3 2.8-.5-.3-1.4.1-2.2.8-.7.8-2.8 1.2-4.6 1.1-1.7-.1-3.2.1-3.2.6 0 1.6-23.2-.1-23.8-1.9-.2-.6-.8-.9-1.3-.5-1.2.7-6.9-1.8-6.9-3 0-.4-.6-.6-1.4-.3-.8.3-1.7-.1-2-.9-.3-.9-1-1.3-1.5-1-.5.3-1.1-.1-1.5-.9-.3-.8-1.2-1.5-1.9-1.5C65 205 53 193.6 53 192c0-.5-.4-1-1-1-.5 0-1-.9-1-2s-.4-2-.9-2c-.9 0-2.2-2.7-2.7-5.7-.1-.7-.9-2-1.8-2.9-1-.9-1.5-2.7-1.3-4.2.2-1.5-.1-3.2-.8-3.8-1.2-1.3-1.4-20.1-.1-22.2.4-.7.8-2.6.8-4.2.1-1.6.5-2.7 1-2.4.5.3.8 0 .7-.7-.2-.8.5-2.8 1.4-4.6.9-1.8 1.7-3.8 1.7-4.6 0-.8.7-1.7 1.5-2.1.8-.3 1.5-1.2 1.5-2s.8-2 1.8-2.5c1.4-.9 2.6-.1 7 4.6 2.8 3.2 5.2 5.4 5.2 5zm170.6-7.7c.9 0 1.3.4 1 .9-.3.5.3 1.9 1.3 3.2 1.8 2.4 4.6 9.3 4.6 11.7 0 .7.5 1.6 1 2 .6.4 1.1 2.5 1.2 4.7 0 2.2.6 5.7 1.1 7.7.5 2.1.6 3.8.2 3.8-.5 0-.6.9-.3 2s.1 2-.5 2-1.1 1.8-1 3.9c0 2.2-.3 4.5-.8 5.3-.5.7-.9 1.9-1 2.6-.1.7-1.7 4.3-3.4 7.9-3.4 6.9-15.8 20.5-20 21.8-1.1.4-1.7 1.1-1.4 1.7.4.7.2.8-.5.4-.6-.4-1.8-.2-2.6.4-.8.7-1.5.9-1.5.4s-.4-.5-.8.1c-1.1 1.6-5 3.5-7.1 3.5-1.1 0-2.2.4-2.6.9-.3.6-2.1.8-4 .7-1.9-.2-3.5 0-3.5.4 0 .9-13 1.1-14.5.2-.5-.4-2.5-.8-4.3-.9-1.8-.1-4.7-.9-6.4-1.7-1.7-.9-4-1.6-5-1.6-1.2 0-1.7-.4-1.2-1.2.5-.8.2-.9-1-.5-1 .4-1.9.1-2.2-.8-.4-.8-1-1.3-1.4-1-.4.3-1-.2-1.4-1-.3-.8-1.5-1.5-2.6-1.5s-2-.3-2-.6c0-.9 28.1-28.4 29.1-28.4.5 0 .8-.3.7-.8-.4-.9 20.3-21.2 21.6-21.2.5 0 .7-.3.3-.6-.3-.3 1.9-2.8 4.9-5.5 3-2.7 5.2-4.9 5-4.9-.2 0 1.7-2.1 4.3-4.8 2.5-2.6 4.7-4.6 4.9-4.6.2.1 2.4-1.9 4.9-4.5 2.8-2.8 4.8-4.1 5-3.4.3.7 1.1 1.3 1.9 1.3zm-91 117.5c-.3.8.2 1.9.9 2.5.8.7 1.2 1.6.9 2.1-.3.5-.1.9.4.9s1.3.8 1.6 1.7c1.3 3.5 3.7 7.3 4.7 7.3.5 0 .9.9.9 2s.7 2 1.5 2 1.5.5 1.5 1c0 .6 1.1 2 2.5 3.2 1.4 1.2 2.5 2.5 2.5 3s-8.9.8-19.7.8l-19.7-.1 5.2-5c2.9-2.7 5.2-5.7 5.2-6.5 0-.8.5-1.2 1-.9.6.3 1-.1 1-.9 0-.9.5-1.6 1.1-1.6.5 0 .8-.4.5-.9-.3-.5.1-1.5 1-2.2 1.6-1.3 3.7-5.4 3.9-7.4 0-.6.4-1.6.8-2.3 1-1.6 3-.5 2.3 1.3z"/></svg>