<svg width="60" height="60" xmlns="http://www.w3.org/2000/svg">

 <g>
  <title>background</title>
  <rect fill="none" id="canvas_background" height="62" width="62" y="-1" x="-1"/>
 </g>
 <g>
  <title>Layer 1</title>
  <g stroke="null" id="svg_1">
   <path stroke="null" id="svg_2" fill="#e7951f" d="m57.385317,17.303972c-7.545794,2.778157 -13.294677,4.756623 -18.352682,11.011682c-4.506077,5.573742 -11.011924,7.50561 -18.352561,3.83166l0,20.026378l-3.670924,0l0,-49.551962c-0.000121,-1.01453 0.82075,-1.83528 1.835159,-1.83528c1.014288,0 1.835643,0.82075 1.835643,1.83528c4.075307,5.925112 11.158257,7.237393 18.352561,7.341242c11.01144,0.160979 18.352803,7.341 18.352803,7.341zm-33.035287,24.345937l0,3.734468c4.33009,0.885747 7.341242,2.7646 7.341242,4.95476c0,3.039596 -5.753361,5.505962 -12.846962,5.505962c-7.093843,0 -12.84672,-2.466366 -12.84672,-5.506567c0,-2.189555 3.010789,-4.068287 7.340758,-4.954155l0,-3.734468c-6.666825,1.154085 -11.011682,4.387461 -11.011682,8.688502c0,5.401991 6.792704,9.176522 16.517522,9.176522c9.724577,0 16.517643,-3.774652 16.517643,-9.176522c0.000242,-4.301041 -4.344977,-7.534417 -11.011803,-8.688502z"/>
  </g>
  <g id="svg_3"/>
  <g id="svg_4"/>
  <g id="svg_5"/>
  <g id="svg_6"/>
  <g id="svg_7"/>
  <g id="svg_8"/>
  <g id="svg_9"/>
  <g id="svg_10"/>
  <g id="svg_11"/>
  <g id="svg_12"/>
  <g id="svg_13"/>
  <g id="svg_14"/>
  <g id="svg_15"/>
  <g id="svg_16"/>
  <g id="svg_17"/>
 </g>
</svg>