<?xml version="1.0" encoding="UTF-8"?>
<svg width="32px" height="50px" viewBox="0 0 32 50" version="1.1" xmlns="http://www.w3.org/2000/svg" xmlns:xlink="http://www.w3.org/1999/xlink">
    <!-- Generator: Sketch 48.2 (47327) - http://www.bohemiancoding.com/sketch -->
    <title>locked</title>
    <desc>Created with Sketch.</desc>
    <defs>
        <linearGradient x1="50.0023118%" y1="-7.34829097%" x2="50.0023118%" y2="95.9944662%" id="linearGradient-1">
            <stop stop-color="#C2CECE" offset="0%"></stop>
            <stop stop-color="#97AAAA" offset="100%"></stop>
        </linearGradient>
        <radialGradient cx="100.687253%" cy="73.3830024%" fx="100.687253%" fy="73.3830024%" r="99.4693557%" gradientTransform="translate(1.006873,0.733830),scale(1.000000,0.730706),translate(-1.006873,-0.733830)" id="radialGradient-2">
            <stop stop-color="#303033" offset="0%"></stop>
            <stop stop-color="#323235" stop-opacity="0.739" offset="26.1%"></stop>
            <stop stop-color="#3A3B3D" stop-opacity="0.59" offset="41%"></stop>
            <stop stop-color="#48494B" stop-opacity="0.468" offset="53.2%"></stop>
            <stop stop-color="#5B5C5F" stop-opacity="0.362" offset="63.8%"></stop>
            <stop stop-color="#747678" stop-opacity="0.266" offset="73.4%"></stop>
            <stop stop-color="#929697" stop-opacity="0.176" offset="82.4%"></stop>
            <stop stop-color="#B6BCBC" stop-opacity="0.092" offset="90.8%"></stop>
            <stop stop-color="#DFE6E5" stop-opacity="0.015" offset="98.5%"></stop>
            <stop stop-color="#E8EFEE" stop-opacity="0" offset="100%"></stop>
        </radialGradient>
        <radialGradient cx="-15.7686046%" cy="71.0355201%" fx="-15.7686046%" fy="71.0355201%" r="114.87222%" gradientTransform="translate(-0.157686,0.710355),scale(1.000000,0.736463),translate(0.157686,-0.710355)" id="radialGradient-3">
            <stop stop-color="#E8EFEE" stop-opacity="0" offset="0%"></stop>
            <stop stop-color="#E6EDEC" stop-opacity="0.395" offset="39.5%"></stop>
            <stop stop-color="#E0E6E6" stop-opacity="0.537" offset="53.7%"></stop>
            <stop stop-color="#D4DBDA" stop-opacity="0.639" offset="63.9%"></stop>
            <stop stop-color="#C4CAC9" stop-opacity="0.721" offset="72.1%"></stop>
            <stop stop-color="#AFB4B4" stop-opacity="0.791" offset="79.1%"></stop>
            <stop stop-color="#959899" stop-opacity="0.853" offset="85.3%"></stop>
            <stop stop-color="#757879" stop-opacity="0.909" offset="90.9%"></stop>
            <stop stop-color="#525456" stop-opacity="0.959" offset="95.9%"></stop>
            <stop stop-color="#303033" offset="100%"></stop>
        </radialGradient>
        <linearGradient x1="148.083857%" y1="49.9948172%" x2="-40.5532515%" y2="49.9948172%" id="linearGradient-4">
            <stop stop-color="#E4B676" stop-opacity="0" offset="0%"></stop>
            <stop stop-color="#E4B676" stop-opacity="0.372509058" offset="19.7724011%"></stop>
            <stop stop-color="#E6B26A" stop-opacity="0.499" offset="47.8276467%"></stop>
            <stop stop-color="#C58F44" stop-opacity="0.852" offset="85.0506218%"></stop>
            <stop stop-color="#C79754" offset="100%"></stop>
        </linearGradient>
        <linearGradient x1="53.7653029%" y1="-44.3237371%" x2="53.7653029%" y2="144.313372%" id="linearGradient-5">
            <stop stop-color="#E4B676" stop-opacity="0" offset="0%"></stop>
            <stop stop-color="#E4B676" stop-opacity="0.372509058" offset="19.7724011%"></stop>
            <stop stop-color="#E6B26A" stop-opacity="0.499" offset="47.8276467%"></stop>
            <stop stop-color="#C58F44" stop-opacity="0.852" offset="85.0506218%"></stop>
            <stop stop-color="#C79754" offset="100%"></stop>
        </linearGradient>
        <linearGradient x1="50.0120433%" y1="9.37314728%" x2="50.0120433%" y2="99.3027805%" id="linearGradient-6">
            <stop stop-color="#5B6A6A" offset="0%"></stop>
            <stop stop-color="#303033" offset="100%"></stop>
        </linearGradient>
    </defs>
    <g id="Home-Copy" stroke="none" stroke-width="1" fill="none" fill-rule="evenodd" transform="translate(-955.000000, -216.000000)">
        <g id="Group-6" transform="translate(925.000000, 174.000000)" fill-rule="nonzero">
            <g id="shutterstock_309343181">
                <g id="Group-6" transform="translate(30.000000, 38.000000)">
                    <g id="Group-5">
                        <g id="locked" transform="translate(0.000000, 4.000000)">
                            <path d="M28.9005854,21.4187135 C27.8625366,21.4187135 27.0210732,20.5780702 27.0210732,19.5410331 L27.0210732,14.9173489 C27.0210732,8.73508772 21.989561,3.64775828 15.8021463,3.75730994 C9.81619512,3.86315789 4.97921951,8.76091618 4.97921951,14.7657895 L4.97921951,19.5411306 C4.97921951,20.5781676 4.1377561,21.4188109 3.09970732,21.4188109 C2.06165854,21.4188109 1.22019512,20.5781676 1.22019512,19.5411306 L1.22019512,14.961306 C1.22019512,6.82826511 7.72068293,0.0759259259 15.8614634,0.000877192982 C24.0745366,-0.0748538012 30.7801951,6.57797271 30.7801951,14.7657895 L30.7801951,19.5411306 C30.7800976,20.5780702 29.9385366,21.4187135 28.9005854,21.4187135 Z" id="Shape" fill="url(#linearGradient-1)"></path>
                            <path d="M13.7972683,3.75711501 C7.81131707,3.86296296 2.37278049,8.76072125 2.37278049,14.7654971 L2.37278049,19.5408382 C2.37278049,20.2092593 2.09707317,21.1272904 2.09707317,21.1272904 C2.38741463,21.3108187 2.73053659,21.418616 3.0995122,21.418616 C4.13756098,21.418616 4.97902439,20.5779727 4.97902439,19.5409357 L4.97902439,14.7655945 C4.97902439,9.03040936 9.39219512,4.30847953 15.0036098,3.80331384 C14.607122,3.76676413 14.2049756,3.75 13.7972683,3.75711501 Z" id="Shape" fill="url(#radialGradient-2)"></path>
                            <path d="M15.8613659,0.000682261209 C15.5740488,0.00341130604 15.2889756,0.0152046784 15.0060488,0.0343079922 C22.6861463,0.55497076 28.0235122,6.96325536 28.0235122,14.7655945 L28.0235122,19.5409357 C28.0235122,20.2093567 27.6727805,20.7946394 27.1463415,21.1273879 C27.4366829,21.3109162 28.5315122,21.4187135 28.9005854,21.4187135 C29.9386341,21.4187135 30.7800976,20.5780702 30.7800976,19.5410331 L30.7800976,14.765692 C30.7800976,6.57768031 24.0743415,-0.0750487329 15.8613659,0.000682261209 Z" id="Shape" fill="url(#radialGradient-3)"></path>
                            <path d="M26.2410732,20.9196881 C26.043122,22.0572125 25.0548293,22.8878168 23.8990244,22.8878168 L8.10097561,22.8878168 C6.94526829,22.8878168 5.95687805,22.0573099 5.75892683,20.9196881 C5.56097561,19.7821637 4.57268293,18.9515595 3.41687805,18.9515595 L2.44868293,18.9515595 C1.13580488,18.9515595 0.0715121951,20.0148148 0.0715121951,21.3264133 L0.0715121951,47.5277778 C0.0715121951,48.8393762 1.13580488,49.9026316 2.44868293,49.9026316 L29.5515122,49.9026316 C30.8643902,49.9026316 31.9286829,48.8393762 31.9286829,47.5277778 L31.9286829,21.3264133 C31.9286829,20.0148148 30.8643902,18.9515595 29.5515122,18.9515595 L28.5833171,18.9515595 C27.4274146,18.9515595 26.439122,19.7819688 26.2410732,20.9196881 Z" id="Shape" fill="url(#linearGradient-4)"></path>
                            <path d="M0.0715121951,42.5160819 L0.0715121951,47.5276803 C0.0715121951,48.8392788 1.13580488,49.9025341 2.44868293,49.9025341 L29.5514146,49.9025341 C30.8642927,49.9025341 31.9285854,48.8392788 31.9285854,47.5276803 L31.9285854,42.5160819 L0.0715121951,42.5160819 Z" id="Shape" fill="url(#linearGradient-5)"></path>
                            <path d="M31.9285854,47.5276803 L31.9285854,43.6990253 L18.9814634,30.7646199 C18.2399024,29.9608187 17.1780488,29.4560429 16.0000976,29.4560429 C15.9147317,29.4560429 15.8289756,29.4586745 15.7425366,29.4641326 C13.6555122,29.5936647 11.9875122,31.3333333 11.9452683,33.4246589 C11.9217561,34.5974659 12.4114146,35.7037037 13.2460488,36.47846 C13.320878,36.5602339 13.4001951,36.6382066 13.4817561,36.7140351 C13.5565854,36.795809 13.6359024,36.8737817 13.7174634,36.9495127 C13.7326829,36.9661793 13.7489756,36.9818713 13.7644878,36.9981481 L13.3001951,41.1406433 C13.2376585,41.6982456 13.4166829,42.2580897 13.7910244,42.6763158 L21.0246829,49.9025341 L29.5513171,49.9025341 C30.8641951,49.9025341 31.9285854,48.8392788 31.9285854,47.5276803 Z" id="Shape" fill="url(#linearGradient-4)"></path>
                            <path d="M15.264,43.3342105 C14.7023415,43.3342105 14.1654634,43.094347 13.791122,42.6761209 C13.4166829,42.2578947 13.2376585,41.6981481 13.3002927,41.1404483 L13.7760976,36.895809 C12.6218537,36.1378168 11.9170732,34.8278752 11.9452683,33.4244639 C11.9875122,31.3331384 13.6555122,29.5934698 15.7425366,29.4639376 C15.8289756,29.458577 15.9147317,29.455848 16.0000976,29.455848 C18.2362927,29.455848 20.0556098,31.2734893 20.0556098,33.5075049 C20.0556098,34.8755361 19.3515122,36.1532164 18.224,36.8955166 L18.6999024,41.1402534 C18.762439,41.6980507 18.5834146,42.2577973 18.2090732,42.6760234 C17.8347317,43.0942495 17.2979512,43.3341131 16.7361951,43.3341131 L15.2640976,43.3341131 L15.2640976,43.3342105 L15.264,43.3342105 Z" id="Shape" fill="url(#linearGradient-4)"></path>
                            <path d="M15.264,43.1840156 C14.7450732,43.1840156 14.2490732,42.9623782 13.9032195,42.5759259 C13.5572683,42.1894737 13.3919024,41.6724172 13.4498537,41.1572125 L13.9358049,36.8208577 L13.8586341,36.7702729 C12.7443902,36.038694 12.068878,34.7576998 12.0957073,33.4274854 C12.1363902,31.4136452 13.7423415,29.738499 15.7519024,29.6139376 C15.8352195,29.6086745 15.9177561,29.6061404 16.0000976,29.6061404 C18.153561,29.6061404 19.9052683,31.3563353 19.9052683,33.5076998 C19.9052683,34.8037037 19.2293659,36.0538986 18.1412683,36.7701754 L18.0643902,36.8207602 L18.5503415,41.157115 C18.6081951,41.6723197 18.4428293,42.1895712 18.0969756,42.5759259 C17.751122,42.9623782 17.2552195,43.1840156 16.7361951,43.1840156 L15.264,43.1840156 Z" id="Shape" fill="url(#linearGradient-4)"></path>
                            <path d="M19.8099512,32.654386 L18.4592195,31.3049708 C17.811122,30.5833333 16.8501463,30.1478558 15.7890732,30.2136452 C14.0903415,30.3191033 12.731122,31.7396686 12.696878,33.4395712 C12.6765854,34.4486355 13.1096585,35.3568226 13.8065366,35.9753411 C13.8865366,36.0635478 13.9699512,36.148538 14.0590244,36.2275828 C14.1390244,36.3157895 14.222439,36.4007797 14.3115122,36.4798246 C14.388,36.5640351 14.4675122,36.6453216 14.5521951,36.7212476 L14.0474146,41.2239766 C13.9965854,41.6766082 14.199122,42.0940546 14.5361951,42.3436647 L15.3773659,43.1840156 L16.7362927,43.1840156 C17.2552195,43.1840156 17.7512195,42.9623782 18.0970732,42.5759259 C18.4430244,42.1894737 18.6083902,41.6723197 18.550439,41.157115 L18.0644878,36.8207602 L18.1413659,36.7701754 C19.2294634,36.0538986 19.9053659,34.8037037 19.9053659,33.5076998 C19.9051707,33.2145224 19.8716098,32.9291423 19.8099512,32.654386 Z" id="Shape" fill="url(#linearGradient-4)"></path>
                            <path d="M19.3038049,33.5076998 C19.3038049,31.6151072 17.7093659,30.0945419 15.7890732,30.2137427 C14.0903415,30.3192008 12.731122,31.7397661 12.696878,33.4397661 C12.6698537,34.782846 13.4461463,35.9476608 14.5782439,36.4876218 L14.0472195,41.2239766 C13.9659512,41.9488304 14.5337561,42.5831384 15.2638049,42.5831384 L16,42.5831384 L16.7360976,42.5831384 C17.4662439,42.5831384 18.0339512,41.9488304 17.9526829,41.2239766 L17.4216585,36.4876218 C18.5347317,35.9566277 19.3038049,34.8220273 19.3038049,33.5076998 Z" id="SVGCleanerId_0" fill="url(#linearGradient-6)"></path>
                            <path d="M19.3038049,33.5076998 C19.3038049,31.6151072 17.7093659,30.0945419 15.7890732,30.2137427 C14.0903415,30.3192008 12.731122,31.7397661 12.696878,33.4397661 C12.6698537,34.782846 13.4461463,35.9476608 14.5782439,36.4876218 L14.0472195,41.2239766 C13.9659512,41.9488304 14.5337561,42.5831384 15.2638049,42.5831384 L16,42.5831384 L16.7360976,42.5831384 C17.4662439,42.5831384 18.0339512,41.9488304 17.9526829,41.2239766 L17.4216585,36.4876218 C18.5347317,35.9566277 19.3038049,34.8220273 19.3038049,33.5076998 Z" id="SVGCleanerId_0_1_" fill="url(#linearGradient-6)"></path>
                        </g>
                    </g>
                </g>
            </g>
        </g>
    </g>
</svg>