<?xml version="1.0" encoding="UTF-8"?>
<svg width="40px" height="48px" viewBox="0 0 40 48" version="1.1" xmlns="http://www.w3.org/2000/svg" xmlns:xlink="http://www.w3.org/1999/xlink">
    <!-- Generator: Sketch 48.2 (47327) - http://www.bohemiancoding.com/sketch -->
    <title>Group 9</title>
    <desc>Created with Sketch.</desc>
    <defs>
        <linearGradient x1="50%" y1="0%" x2="50%" y2="96.1837813%" id="linearGradient-1">
            <stop stop-color="#E9BC7C" offset="0%"></stop>
            <stop stop-color="#DDAB62" offset="100%"></stop>
        </linearGradient>
        <linearGradient x1="153.311435%" y1="49.9948172%" x2="-40.5532515%" y2="49.9948172%" id="linearGradient-2">
            <stop stop-color="#FFC200" stop-opacity="0" offset="0%"></stop>
            <stop stop-color="#FFBB00" stop-opacity="0.203" offset="20.3%"></stop>
            <stop stop-color="#E6B26A" stop-opacity="0.499" offset="47.8276467%"></stop>
            <stop stop-color="#C58F44" stop-opacity="0.852" offset="85.0506218%"></stop>
            <stop stop-color="#C79754" offset="100%"></stop>
        </linearGradient>
        <linearGradient x1="43.6847578%" y1="52.7527171%" x2="110.810719%" y2="-28.1332263%" id="linearGradient-3">
            <stop stop-color="#FF5D00" offset="0%"></stop>
            <stop stop-color="#D54003" offset="100%"></stop>
        </linearGradient>
        <linearGradient x1="153.311435%" y1="49.9948172%" x2="-40.5532515%" y2="49.9948172%" id="linearGradient-4">
            <stop stop-color="#E4B676" stop-opacity="0" offset="2.69650829%"></stop>
            <stop stop-color="#E4B676" stop-opacity="0.372509058" offset="19.7724011%"></stop>
            <stop stop-color="#E6B26A" stop-opacity="0.499" offset="47.8276467%"></stop>
            <stop stop-color="#C58F44" stop-opacity="0.852" offset="85.0506218%"></stop>
            <stop stop-color="#C79754" offset="100%"></stop>
        </linearGradient>
        <linearGradient x1="56.3053417%" y1="52.7507053%" x2="-10.8206193%" y2="-28.135238%" id="linearGradient-5">
            <stop stop-color="#FF5D00" offset="0%"></stop>
            <stop stop-color="#D54003" offset="100%"></stop>
        </linearGradient>
        <linearGradient x1="26.6816151%" y1="25.6019238%" x2="108.652256%" y2="111.379555%" id="linearGradient-6">
            <stop stop-color="#FF931E" offset="0%"></stop>
            <stop stop-color="#FF5D00" offset="100%"></stop>
        </linearGradient>
        <linearGradient x1="84.549381%" y1="86.5190185%" x2="40.3653441%" y2="41.3077313%" id="linearGradient-7">
            <stop stop-color="#FF5D00" stop-opacity="0" offset="0%"></stop>
            <stop stop-color="#D54003" offset="100%"></stop>
        </linearGradient>
        <linearGradient x1="26.4187381%" y1="26.4234829%" x2="106.495149%" y2="106.49993%" id="linearGradient-8">
            <stop stop-color="#FFE7A5" offset="0%"></stop>
            <stop stop-color="#FFBF5C" offset="100%"></stop>
        </linearGradient>
    </defs>
    <g id="Home-Copy" stroke="none" stroke-width="1" fill="none" fill-rule="evenodd" transform="translate(-210.000000, -705.000000)">
        <g id="Group-13" transform="translate(165.000000, 644.000000)" fill-rule="nonzero">
            <g id="Group-9" transform="translate(45.000000, 61.000000)">
                <g id="first">
                    <path d="M12.9529907,26.6205937 L5.04878505,41.74125 L0.999345794,42.2030625 C0.311962617,42.2814375 -0.182897196,41.5566562 0.138317757,40.9420312 L8.77383178,24.42225 L12.9529907,26.6205937 Z" id="Shape" fill="url(#linearGradient-1)"></path>
                    <path d="M17.1320561,28.81875 L9.22794393,43.9395 L8.15831776,41.935125 C7.99158879,41.6226562 7.65168224,41.443875 7.30065421,41.4839063 L5.0488785,41.7411563 L12.9529907,26.6204062 L17.1320561,28.81875 Z" id="Shape" fill="url(#linearGradient-2)"></path>
                    <path d="M21.311215,31.017 L12.6757009,47.5367813 C12.354486,48.1514063 11.4786916,48.15525 11.1520561,47.5434375 L9.22803738,43.9395 L17.1321495,28.81875 L21.311215,31.017 Z" id="Shape" fill="url(#linearGradient-3)"></path>
                    <path d="M27.0471028,26.6205937 L34.951215,41.74125 L39.0006542,42.2030625 C39.6880374,42.2814375 40.1828972,41.5566562 39.8616822,40.9420312 L31.2261682,24.42225 L27.0471028,26.6205937 Z" id="Shape" fill="url(#linearGradient-1)"></path>
                    <path d="M22.8679439,28.81875 L30.7720561,43.9395 L31.8416822,41.935125 C32.0084112,41.6226562 32.3483178,41.443875 32.6993458,41.4839063 L34.9511215,41.7411563 L27.0470093,26.6204062 L22.8679439,28.81875 Z" id="Shape" fill="url(#linearGradient-4)"></path>
                    <path d="M18.688785,31.017 L27.3242991,47.5367813 C27.645514,48.1514063 28.5213084,48.15525 28.8479439,47.5434375 L30.7719626,43.9395 L22.8678505,28.81875 L18.688785,31.017 Z" id="Shape" fill="url(#linearGradient-5)"></path>
                    <path d="M37.924486,18.6486563 L35.2039252,21.8496563 C34.9179439,22.186125 34.7766355,22.6225313 34.8108411,23.0634375 L35.1365421,27.2569688 C35.2001869,28.0756875 34.6611215,28.8194063 33.8651402,29.0113125 L29.7883178,29.994 C29.358785,30.0975 28.9878505,30.3680625 28.7570093,30.7459688 L26.5684112,34.330875 C26.1402804,35.032125 25.2671963,35.3166563 24.51,35.0016563 L20.6381308,33.3908438 C20.2296262,33.220875 19.7705607,33.220875 19.3620561,33.3908438 L15.4900935,35.0014688 C14.7328972,35.3164688 13.8598131,35.0319375 13.4316822,34.3306875 L11.2430841,30.7457813 C11.0123364,30.3677813 10.6414019,30.0973125 10.2118692,29.9938125 L6.13504673,29.011125 C5.33906542,28.8192188 4.8,28.0755 4.86364486,27.2567813 L5.18934579,23.0634375 C5.2235514,22.622625 5.08224299,22.186125 4.79626168,21.8496563 L2.07570093,18.64875 C1.54485981,18.0241875 1.54485981,17.1053438 2.07570093,16.4807813 L4.79626168,13.2797813 C5.08224299,12.9433125 5.2235514,12.5069063 5.18934579,12.066 L4.86364486,7.87246875 C4.8,7.05375 5.33906542,6.31003125 6.13504673,6.118125 L10.2118692,5.1354375 C10.6414019,5.0319375 11.0123364,4.761375 11.2431776,4.38346875 L13.4317757,0.7985625 C13.8599065,0.0973125 14.7329907,-0.18721875 15.4901869,0.12778125 L19.3621495,1.7385 C19.7706542,1.90846875 20.2297196,1.90846875 20.6382243,1.7385 L24.5101869,0.127875 C25.2673832,-0.187125 26.1404673,0.09740625 26.5685981,0.79865625 L28.7571963,4.3835625 C28.9879439,4.7615625 29.3588785,5.03203125 29.7884112,5.13553125 L33.8652336,6.11821875 C34.661215,6.310125 35.2002804,7.05384375 35.1366355,7.8725625 L34.8109346,12.0659063 C34.776729,12.5067187 34.9180374,12.9432188 35.2040187,13.2796875 L37.9245794,16.4805938 C38.4553271,17.1051563 38.4553271,18.0240938 37.924486,18.6486563 Z" id="Shape" fill="url(#linearGradient-6)"></path>
                    <path d="M37.924486,18.6486563 C38.0471963,18.5041875 38.1403738,18.3435938 38.2063551,18.1749375 L29.048785,8.98875 C26.7786916,6.57946875 23.5656075,5.07365625 20,5.07365625 C13.1229907,5.07365625 7.54803738,10.6660313 7.54803738,17.5645313 C7.54803738,21.1412813 9.04915888,24.3644063 11.4509346,26.6415938 L18.5258879,33.7386563 L19.3620561,33.39075 C19.7705607,33.220875 20.2296262,33.220875 20.6381308,33.39075 L24.51,35.001375 C25.2671963,35.316375 26.1402804,35.0318438 26.5684112,34.3305938 L28.7570093,30.7456875 C28.987757,30.3676875 29.3586916,30.0972188 29.7882243,29.9937188 L33.8650467,29.0110313 C34.661028,28.819125 35.2000935,28.0754063 35.1364486,27.2566875 L34.8107477,23.0631563 C34.7765421,22.6223438 34.9178505,22.1858438 35.2038318,21.849375 L37.924486,18.6486563 Z" id="Shape" fill="url(#linearGradient-7)"></path>
                    <ellipse id="Oval" fill="url(#linearGradient-8)" cx="20" cy="17.56425" rx="12.4523364" ry="12.49125"></ellipse>
                    <g id="Group" transform="translate(16.635514, 9.093750)" fill="#DB9E36">
                        <path d="M0.016635514,4.98328125 C0.016635514,4.60453125 0.169065421,4.30575 0.474205607,4.08721875 L2.74028037,1.90153125 C2.89990654,1.7413125 3.09598131,1.6610625 3.32850467,1.6610625 C3.59,1.6610625 3.82598131,1.73034375 4.03682243,1.86871875 C4.24719626,2.007375 4.35271028,2.19309375 4.35271028,2.4260625 L4.35271028,16.8955313 C4.35271028,17.1287813 4.23626168,17.3145 4.00401869,17.452875 C3.77140187,17.5915313 3.5028972,17.6605313 3.19775701,17.6605313 C2.87813084,17.6605313 2.60570093,17.5914375 2.38074766,17.452875 C2.1553271,17.3145 2.0428972,17.1287813 2.0428972,16.8955313 L2.0428972,4.74290625 L1.28028037,5.7045 C1.13504673,5.850375 0.975233645,5.923125 0.800934579,5.923125 C0.582990654,5.923125 0.397850467,5.824875 0.245327103,5.62809375 C0.0927102804,5.4313125 0.016635514,5.216625 0.016635514,4.98328125 Z" id="Shape"></path>
                        <path d="M5.53859813,4.1525625 C5.53859813,4.0861875 5.56186916,4.01775 5.60850467,3.94696875 C5.65523364,3.87628125 5.7117757,3.8409375 5.77841121,3.8409375 C5.81841121,3.8409375 5.87401869,3.86690625 5.94504673,3.91884375 C6.01607477,3.970875 6.11158879,4.02271875 6.23149533,4.07475 C6.35140187,4.12678125 6.49588785,4.15265625 6.6646729,4.15265625 C7.04224299,4.15265625 7.23102804,4.0325625 7.23102804,3.792375 C7.23102804,3.663375 7.17588785,3.562125 7.06570093,3.48871875 C6.95542056,3.4153125 6.82214953,3.3575625 6.66570093,3.31528125 C6.50915888,3.273 6.35383178,3.2251875 6.19962617,3.17184375 C6.0453271,3.1185 5.91308411,3.02728125 5.8028972,2.89828125 C5.69271028,2.769375 5.63757009,2.6025 5.63757009,2.39784375 C5.63757009,2.13815625 5.73018692,1.91475 5.91523364,1.727625 C6.10037383,1.5405 6.3846729,1.4469375 6.76803738,1.4469375 C7.01934579,1.4469375 7.24738318,1.48575 7.45233645,1.563 C7.65738318,1.64034375 7.75981308,1.732125 7.75981308,1.83815625 C7.75981308,1.900125 7.73439252,1.9719375 7.68383178,2.0536875 C7.63317757,2.13553125 7.57028037,2.17640625 7.49542056,2.17640625 C7.46897196,2.17640625 7.37859813,2.14321875 7.22439252,2.0769375 C7.07009346,2.0105625 6.92242991,1.97746875 6.78140187,1.97746875 C6.60514019,1.97746875 6.47168224,2.01759375 6.38140187,2.0975625 C6.29102804,2.177625 6.24588785,2.2666875 6.24588785,2.36446875 C6.24588785,2.47115625 6.30093458,2.55571875 6.41121495,2.6180625 C6.52130841,2.68040625 6.65579439,2.73159375 6.81448598,2.77153125 C6.97317757,2.8115625 7.12934579,2.8605 7.28327103,2.91825 C7.4371028,2.976 7.5682243,3.07621875 7.67654206,3.21853125 C7.78495327,3.3609375 7.83915888,3.543375 7.83915888,3.76565625 C7.83915888,4.0516875 7.73775701,4.276125 7.53504673,4.43896875 C7.33233645,4.60190625 7.04588785,4.6831875 6.67560748,4.6831875 C6.36261682,4.6831875 6.09485981,4.62796875 5.87233645,4.5174375 C5.64981308,4.4068125 5.53859813,4.28521875 5.53859813,4.1525625 Z" id="Shape"></path>
                        <path d="M8.4011215,3.5955 L8.4011215,0.27309375 C8.4011215,0.21121875 8.43626168,0.15815625 8.50682243,0.11390625 C8.57728972,0.06975 8.65654206,0.04753125 8.74485981,0.04753125 C8.83299065,0.04753125 8.91345794,0.06975 8.98616822,0.11390625 C9.0588785,0.15815625 9.0953271,0.21121875 9.0953271,0.27309375 L9.0953271,1.4866875 L9.90186916,1.4866875 C9.95906542,1.4866875 10.0053271,1.5121875 10.0407477,1.56290625 C10.0759813,1.61371875 10.0936449,1.67465625 10.0936449,1.74525 C10.0936449,1.81603125 10.0759813,1.87678125 10.0407477,1.9276875 C10.0053271,1.97859375 9.95915888,2.00390625 9.90186916,2.00390625 L9.0953271,2.00390625 L9.0953271,3.5955 C9.0953271,3.7546875 9.12943925,3.867375 9.19775701,3.93365625 C9.26607477,4.00003125 9.38616822,4.033125 9.55803738,4.033125 L9.78943925,4.033125 C9.88205607,4.033125 9.9546729,4.06190625 10.0075701,4.119375 C10.0604673,4.17684375 10.0869159,4.247625 10.0869159,4.331625 C10.0869159,4.41571875 10.0604673,4.48640625 10.0075701,4.543875 C9.9546729,4.60134375 9.88205607,4.630125 9.78943925,4.630125 L9.55803738,4.630125 C8.78663551,4.63003125 8.4011215,4.28521875 8.4011215,3.5955 Z" id="Shape"></path>
                    </g>
                </g>
            </g>
        </g>
    </g>
</svg>