<?xml version="1.0" encoding="UTF-8"?>
<svg width="16px" height="16px" viewBox="0 0 16 16" version="1.1" xmlns="http://www.w3.org/2000/svg" xmlns:xlink="http://www.w3.org/1999/xlink">
    <!-- Generator: Sketch 51.3 (57544) - http://www.bohemiancoding.com/sketch -->
    <title>star_favorite [#1499] copy 3</title>
    <desc>Created with Sketch.</desc>
    <defs>
        <linearGradient x1="50%" y1="2.18829719%" x2="50%" y2="100%" id="linearGradient-1">
            <stop stop-color="#F5C305" offset="0%"></stop>
            <stop stop-color="#E7A302" offset="100%"></stop>
        </linearGradient>
    </defs>
    <g id="Page-1" stroke="none" stroke-width="1" fill="none" fill-rule="evenodd">
        <g id="Extra-large:-Desktops---12-col" transform="translate(-675.000000, -819.000000)" fill="url(#linearGradient-1)">
            <g id="Group-15" transform="translate(165.000000, 676.000000)">
                <g id="Group-13" transform="translate(0.000000, 94.000000)">
                    <g id="Group-11" transform="translate(441.000000, 49.000000)">
                        <g id="Group-10">
                            <path d="M82.3764801,9.7648 C82.034875,10.1112 81.8796727,10.6104 81.9596739,11.1 L82.4756816,14.2328 C82.636484,15.208 81.8924729,16 81.0484603,16 C80.826057,16 80.5964536,15.9448 80.3740503,15.8232 L77.67401,14.344 C77.4628069,14.2288 77.2316035,14.1712 76.9996,14.1712 C76.7683965,14.1712 76.5371931,14.2288 76.32599,14.344 L73.6259497,15.8232 C73.4035464,15.9448 73.173943,16 72.9515397,16 C72.1075271,16 71.363516,15.208 71.5243184,14.2328 L72.0403261,11.1 C72.1203273,10.6104 71.965125,10.1112 71.6235199,9.7648 L69.4386873,7.5464 C68.5794745,6.6736 69.0538816,5.1528 70.2410993,4.9728 L73.2603443,4.516 C73.7323513,4.4448 74.1403574,4.136 74.3507605,3.6904 L75.7011806,0.8408 C75.9667846,0.28 76.4835923,0 76.9996,0 C77.5164077,0 78.0332154,0.28 78.2988194,0.8408 L79.6492395,3.6904 C79.8596426,4.136 80.2676487,4.4448 80.7396557,4.516 L83.7589007,4.9728 C84.9461184,5.1528 85.4205255,6.6736 84.5613127,7.5464 L82.3764801,9.7648 Z" id="star_favorite-[#1499]-copy-3"></path>
                        </g>
                    </g>
                </g>
            </g>
        </g>
    </g>
</svg>